<svg xmlns="http://www.w3.org/2000/svg" viewBox="0 0 280 36" role="img" aria-label="Aston Martin">
  <title>Aston Martin</title>
  <g fill="#ffffff">
    <path d="M20 4c-1.2 4.8-4.8 9.2-10.2 12.2 5.4 1.6 9.6 5.2 11.8 10.6 2.2-5.4 6.4-9 11.8-10.6C27.8 13.2 24.2 8.8 23 4h-3z"/>
    <path d="M8 16.2c3.8 1.4 6.8 4 8.4 7.4-1.6-1.8-3.8-3.2-6.4-4-1.2-.4-2.4-.6-3.6-.6v-2.8c.6 0 1.1 0 1.6.0zM32 16.2c-.5 0-1 0-1.6.0v2.8c1.2 0 2.4.2 3.6.6 2.6.8 4.8 2.2 6.4 4-1.6-3.4-4.6-6-8.4-7.4z"/>
    <text x="48" y="24" font-family="Georgia, 'Times New Roman', serif" font-size="16" letter-spacing="0.28em" font-weight="600">ASTON MARTIN</text>
  </g>
</svg>
